<svg xmlns="http://www.w3.org/2000/svg" width="256" height="256" viewBox="0 0 100 100"><rect width="100" height="100" rx="50" fill="#73455a"></rect><path fill="#f2ebd5" d="M28.58 78.08L28.58 78.08Q22.73 78.08 19.50 75.64Q16.27 73.19 15.01 69.04Q13.76 64.89 13.76 59.79L13.76 59.79L13.76 40.34Q13.76 34.77 15.01 30.62Q16.27 26.47 19.50 24.19Q22.73 21.92 28.58 21.92L28.58 21.92Q33.75 21.92 36.77 23.82Q39.80 25.72 41.13 29.26Q42.45 32.80 42.45 37.76L42.45 37.76L42.45 42.11L35.18 42.11L35.18 38.24Q35.18 35.18 34.87 32.83Q34.56 30.48 33.20 29.19Q31.84 27.90 28.65 27.90L28.65 27.90Q25.38 27.90 23.89 29.29Q22.39 30.69 21.95 33.24Q21.51 35.79 21.51 39.19L21.51 39.19L21.51 61.02Q21.51 65.16 22.19 67.58Q22.87 69.99 24.43 71.01Q26.00 72.03 28.65 72.03L28.65 72.03Q31.78 72.03 33.14 70.64Q34.50 69.24 34.84 66.80Q35.18 64.35 35.18 61.08L35.18 61.08L35.18 57.00L42.45 57.00L42.45 61.08Q42.45 66.12 41.23 69.96Q40.00 73.80 37.01 75.94Q34.02 78.08 28.58 78.08ZM55.92 77.47L49.66 77.47L50.68 22.39L58.23 22.39L67.95 67.07L77.74 22.39L85.22 22.39L86.24 77.47L80.06 77.47L79.44 37.49L70.13 77.47L65.78 77.47L56.53 37.49L55.92 77.47Z"></path></svg>