<?xml version="1.0" encoding="UTF-8"?><svg id="Layer_1" xmlns="http://www.w3.org/2000/svg" width="1920" height="1080" xmlns:xlink="http://www.w3.org/1999/xlink" viewBox="0 0 1920 1080"><defs><style>.cls-1{fill:none;}.cls-2{clip-path:url(#clippath);}.cls-3{fill:#f2f4e9;}.cls-4{fill:#03a62c;}.cls-5{fill:#f27405;}.cls-6{fill:#ead513;}.cls-7{fill:#f2d857;}.cls-8{fill:#f2b705;}.cls-9{fill:#f2cb05;}.cls-10{fill:#fcf063;}.cls-11{fill:#fcee21;}.cls-12{fill:#e5a14b;}.cls-13{fill:#6ad936;}.cls-14{fill:#6a9636;}.cls-15{fill:#736357;}.cls-16{fill:#b18362;}.cls-17{fill:#a9c257;}.cls-18{fill:#d07a1e;}.cls-19{fill:#e38a22;}.cls-20{fill:#d2eef9;}.cls-21{fill:#d9bc9a;}.cls-22{fill:#57862b;}.cls-23{clip-path:url(#clippath-1);}</style><clipPath id="clippath"><rect class="cls-1" width="1920" height="1080"/></clipPath><clipPath id="clippath-1"><rect class="cls-1" width="1920" height="1080"/></clipPath></defs><g id="Layer_2"><g class="cls-2"><g class="cls-23"><g><g><rect class="cls-20" x="-53.88" y="-7.68" width="1981.9" height="718.52"/><rect class="cls-17" x="-53.88" y="628.64" width="1980.95" height="450.85"/><g><polygon class="cls-10" points="1541.13 28.21 1666.75 120.12 1672.14 114.34 1546.51 22.42 1541.13 28.21"/><rect class="cls-10" x="1462.43" y="181.29" width="162.89" height="7.5"/><polygon class="cls-10" points="1555.56 356.25 1670.74 254.15 1664.76 248.85 1549.57 350.95 1555.56 356.25"/><polygon class="cls-7" points="1928.63 356.55 1813.44 254.45 1819.43 249.15 1934.61 351.25 1928.63 356.55"/><rect class="cls-7" x="1853.09" y="185.04" width="162.89" height="7.5"/><polygon class="cls-7" points="1947.99 36.64 1822.37 128.55 1816.98 122.77 1942.61 30.85 1947.99 36.64"/><g><polyline class="cls-7" points="1739.56 92.53 1743.79 92.53 1743.79 -51.86 1739.56 -51.86"/><polyline class="cls-10" points="1739.56 -51.86 1735.33 -51.86 1735.33 92.53 1739.56 92.53"/></g><path class="cls-10" d="M1740.26,258.17c-45.96,0-83.21-33.02-83.21-73.76s37.25-73.76,83.21-73.76"/><path class="cls-7" d="M1740.26,110.65c45.96,0,83.21,33.02,83.21,73.76s-37.25,73.76-83.21,73.76"/><g><polyline class="cls-7" points="1740.26 408.18 1744.49 408.18 1744.49 263.79 1740.26 263.79"/><polyline class="cls-10" points="1740.26 263.79 1736.03 263.79 1736.03 408.18 1740.26 408.18"/></g></g><g><ellipse class="cls-3" cx="355.79" cy="250.25" rx="109.47" ry="39.41"/><ellipse class="cls-3" cx="436.1" cy="218.05" rx="109.47" ry="39.41"/><ellipse class="cls-3" cx="495.38" cy="250.25" rx="109.47" ry="39.41"/></g><line class="cls-1" x1="1784.88" y1="638.2" x2="1784.62" y2="637.96"/><g><g><rect class="cls-21" x="1832.56" y="389.8" width="28.68" height="335.68"/><polyline class="cls-16" points="1875.58 389.8 1854.55 389.8 1854.55 725.39 1874.68 725.39"/><polyline class="cls-16" points="1854.55 389.8 1875.58 389.8 1854.07 364.37"/><polyline class="cls-21" points="1854.07 364.37 1832.56 389.8 1854.55 389.8"/></g><g><rect class="cls-21" x="1750.66" y="390.11" width="28.68" height="335.68"/><polyline class="cls-16" points="1793.68 390.11 1772.65 390.11 1772.65 725.71 1792.78 725.71"/><polyline class="cls-16" points="1772.65 390.11 1793.68 390.11 1772.17 364.69"/><polyline class="cls-21" points="1772.17 364.69 1750.66 390.11 1772.65 390.11"/></g><g><g><rect class="cls-21" x="70.41" y="389.66" width="28.68" height="335.68"/><polyline class="cls-16" points="113.43 389.66 92.4 389.66 92.4 725.25 112.53 725.25"/><polyline class="cls-16" points="92.4 389.66 113.43 389.66 91.92 364.24"/><polyline class="cls-21" points="91.92 364.24 70.41 389.66 92.4 389.66"/></g><g><rect class="cls-21" x="152.31" y="389.34" width="28.68" height="335.68"/><polyline class="cls-16" points="195.33 389.34 174.3 389.34 174.3 724.94 194.43 724.94"/><polyline class="cls-16" points="174.3 389.34 195.33 389.34 173.82 363.92"/><polyline class="cls-21" points="173.82 363.92 152.31 389.34 174.3 389.34"/></g><g><rect class="cls-21" x="237.3" y="389.51" width="28.68" height="335.68"/><polyline class="cls-16" points="280.32 389.51 259.29 389.51 259.29 725.1 279.42 725.1"/><polyline class="cls-16" points="259.29 389.51 280.32 389.51 258.81 364.09"/><polyline class="cls-21" points="258.81 364.09 237.3 389.51 259.29 389.51"/></g><g><rect class="cls-21" x="321.16" y="389.67" width="28.68" height="335.68"/><polyline class="cls-16" points="364.19 389.67 343.15 389.67 343.15 725.26 363.29 725.26"/><polyline class="cls-16" points="343.15 389.67 364.19 389.67 342.68 364.25"/><polyline class="cls-21" points="342.68 364.25 321.16 389.67 343.15 389.67"/></g><g><rect class="cls-21" x="404.02" y="389.35" width="28.68" height="335.68"/><polyline class="cls-16" points="447.05 389.35 426.01 389.35 426.01 724.95 446.15 724.95"/><polyline class="cls-16" points="426.01 389.35 447.05 389.35 425.53 363.93"/><polyline class="cls-21" points="425.53 363.93 404.02 389.35 426.01 389.35"/></g><g><rect class="cls-21" x="488.06" y="389.52" width="28.68" height="335.68"/><polyline class="cls-16" points="531.08 389.52 510.05 389.52 510.05 725.11 530.18 725.11"/><polyline class="cls-16" points="510.05 389.52 531.08 389.52 509.57 364.1"/><polyline class="cls-21" points="509.57 364.1 488.06 389.52 510.05 389.52"/></g></g><g><g><rect class="cls-21" x="571.53" y="389.49" width="28.68" height="335.68"/><polyline class="cls-16" points="614.56 389.49 593.52 389.49 593.52 725.08 613.66 725.08"/><polyline class="cls-16" points="593.52 389.49 614.56 389.49 593.05 364.06"/><polyline class="cls-21" points="593.05 364.06 571.53 389.49 593.52 389.49"/></g><g><rect class="cls-21" x="653.44" y="389.17" width="28.68" height="335.68"/><polyline class="cls-16" points="696.46 389.17 675.43 389.17 675.43 724.76 695.56 724.76"/><polyline class="cls-16" points="675.43 389.17 696.46 389.17 674.95 363.75"/><polyline class="cls-21" points="674.95 363.75 653.44 389.17 675.43 389.17"/></g><g><rect class="cls-21" x="738.43" y="389.34" width="28.68" height="335.68"/><polyline class="cls-16" points="781.45 389.34 760.42 389.34 760.42 724.93 780.55 724.93"/><polyline class="cls-16" points="760.42 389.34 781.45 389.34 759.94 363.91"/><polyline class="cls-21" points="759.94 363.91 738.43 389.34 760.42 389.34"/></g><g><rect class="cls-21" x="822.29" y="389.5" width="28.68" height="335.68"/><polyline class="cls-16" points="865.31 389.5 844.28 389.5 844.28 725.09 864.41 725.09"/><polyline class="cls-16" points="844.28 389.5 865.31 389.5 843.8 364.07"/><polyline class="cls-21" points="843.8 364.07 822.29 389.5 844.28 389.5"/></g><g><rect class="cls-21" x="905.15" y="389.18" width="28.68" height="335.68"/><polyline class="cls-16" points="948.17 389.18 927.14 389.18 927.14 724.77 947.27 724.77"/><polyline class="cls-16" points="927.14 389.18 948.17 389.18 926.66 363.76"/><polyline class="cls-21" points="926.66 363.76 905.15 389.18 927.14 389.18"/></g><g><rect class="cls-21" x="989.18" y="389.35" width="28.68" height="335.68"/><polyline class="cls-16" points="1032.21 389.35 1011.17 389.35 1011.17 724.94 1031.3 724.94"/><polyline class="cls-16" points="1011.17 389.35 1032.21 389.35 1010.69 363.92"/><polyline class="cls-21" points="1010.69 363.92 989.18 389.35 1011.17 389.35"/></g></g><g><g><rect class="cls-21" x="1072" y="388.85" width="28.68" height="335.68"/><polyline class="cls-16" points="1115.02 388.85 1093.99 388.85 1093.99 724.45 1114.12 724.45"/><polyline class="cls-16" points="1093.99 388.85 1115.02 388.85 1093.51 363.43"/><polyline class="cls-21" points="1093.51 363.43 1072 388.85 1093.99 388.85"/></g><g><rect class="cls-21" x="1153.9" y="388.54" width="28.68" height="335.68"/><polyline class="cls-16" points="1196.92 388.54 1175.89 388.54 1175.89 724.13 1196.02 724.13"/><polyline class="cls-16" points="1175.89 388.54 1196.92 388.54 1175.41 363.11"/><polyline class="cls-21" points="1175.41 363.11 1153.9 388.54 1175.89 388.54"/></g><g><rect class="cls-21" x="1238.89" y="388.7" width="28.68" height="335.68"/><polyline class="cls-16" points="1281.91 388.7 1260.88 388.7 1260.88 724.3 1281.01 724.3"/><polyline class="cls-16" points="1260.88 388.7 1281.91 388.7 1260.4 363.28"/><polyline class="cls-21" points="1260.4 363.28 1238.89 388.7 1260.88 388.7"/></g><g><rect class="cls-21" x="1322.75" y="388.86" width="28.68" height="335.68"/><polyline class="cls-16" points="1365.77 388.86 1344.74 388.86 1344.74 724.45 1364.87 724.45"/><polyline class="cls-16" points="1344.74 388.86 1365.77 388.86 1344.26 363.44"/><polyline class="cls-21" points="1344.26 363.44 1322.75 388.86 1344.74 388.86"/></g><g><rect class="cls-21" x="1405.61" y="388.55" width="28.68" height="335.68"/><polyline class="cls-16" points="1448.63 388.55 1427.6 388.55 1427.6 724.14 1447.73 724.14"/><polyline class="cls-16" points="1427.6 388.55 1448.63 388.55 1427.12 363.12"/><polyline class="cls-21" points="1427.12 363.12 1405.61 388.55 1427.6 388.55"/></g><g><rect class="cls-21" x="1489.64" y="388.71" width="28.68" height="335.68"/><polyline class="cls-16" points="1532.67 388.71 1511.63 388.71 1511.63 724.31 1531.77 724.31"/><polyline class="cls-16" points="1511.63 388.71 1532.67 388.71 1511.16 363.29"/><polyline class="cls-21" points="1511.16 363.29 1489.64 388.71 1511.63 388.71"/></g></g><g><rect class="cls-21" x="1572.24" y="389.21" width="28.68" height="335.68"/><polyline class="cls-16" points="1615.27 389.21 1594.23 389.21 1594.23 724.8 1614.37 724.8"/><polyline class="cls-16" points="1594.23 389.21 1615.27 389.21 1593.75 363.79"/><polyline class="cls-21" points="1593.75 363.79 1572.24 389.21 1594.23 389.21"/></g><g><rect class="cls-21" x="1654.15" y="388.9" width="28.68" height="335.68"/><polyline class="cls-16" points="1697.17 388.9 1676.13 388.9 1676.13 724.49 1696.27 724.49"/><polyline class="cls-16" points="1676.13 388.9 1697.17 388.9 1675.66 363.47"/><polyline class="cls-21" points="1675.66 363.47 1654.15 388.9 1676.13 388.9"/></g><g><polyline class="cls-21" points="1906.99 483.06 1906.99 501.34 38.08 501.34 38.08 483.06"/><polyline class="cls-16" points="38.08 483.06 38.08 464.77 1906.99 464.77 1906.99 483.06"/></g></g><g><g><ellipse class="cls-14" cx="146.03" cy="644.2" rx="43.02" ry="38.14"/><ellipse class="cls-14" cx="214.87" cy="656.06" rx="43.02" ry="38.14"/><ellipse class="cls-14" cx="278.92" cy="643.35" rx="43.02" ry="38.14"/><ellipse class="cls-14" cx="332.46" cy="654.37" rx="43.02" ry="38.14"/><ellipse class="cls-14" cx="387.91" cy="648.44" rx="43.02" ry="38.14"/><ellipse class="cls-14" cx="451.97" cy="650.98" rx="43.02" ry="38.14"/><ellipse class="cls-14" cx="627.88" cy="635.72" rx="43.02" ry="38.14"/><ellipse class="cls-14" cx="696.72" cy="647.59" rx="43.02" ry="38.14"/><ellipse class="cls-14" cx="760.78" cy="634.88" rx="43.02" ry="38.14"/><ellipse class="cls-14" cx="814.32" cy="645.89" rx="43.02" ry="38.14"/><ellipse class="cls-14" cx="869.77" cy="639.96" rx="43.02" ry="38.14"/><ellipse class="cls-14" cx="933.82" cy="642.5" rx="43.02" ry="38.14"/><ellipse class="cls-14" cx="506.47" cy="647.59" rx="43.02" ry="38.14"/><ellipse class="cls-14" cx="561.92" cy="634.88" rx="43.02" ry="38.14"/><ellipse class="cls-14" cx="24.61" cy="656.06" rx="43.02" ry="38.14"/><ellipse class="cls-14" cx="80.06" cy="643.35" rx="43.02" ry="38.14"/><ellipse class="cls-14" cx="194.23" cy="617.16" rx="43.02" ry="38.14"/></g><g><ellipse class="cls-14" cx="1120.25" cy="638.27" rx="43.02" ry="38.14"/><ellipse class="cls-14" cx="1189.09" cy="650.13" rx="43.02" ry="38.14"/><ellipse class="cls-14" cx="1253.14" cy="637.42" rx="43.02" ry="38.14"/><ellipse class="cls-14" cx="1306.68" cy="648.44" rx="43.02" ry="38.14"/><ellipse class="cls-14" cx="1362.14" cy="642.5" rx="43.02" ry="38.14"/><ellipse class="cls-14" cx="1427.15" cy="638.27" rx="43.02" ry="38.14"/><ellipse class="cls-14" cx="1602.1" cy="629.79" rx="43.02" ry="38.14"/><ellipse class="cls-14" cx="1670.94" cy="641.66" rx="43.02" ry="38.14"/><ellipse class="cls-14" cx="1735" cy="628.94" rx="43.02" ry="38.14"/><ellipse class="cls-14" cx="1788.54" cy="639.96" rx="43.02" ry="38.14"/><ellipse class="cls-14" cx="1843.99" cy="634.03" rx="43.02" ry="38.14"/><ellipse class="cls-14" cx="1908.04" cy="636.57" rx="43.02" ry="38.14"/><ellipse class="cls-14" cx="1480.69" cy="650.13" rx="43.02" ry="38.14"/><ellipse class="cls-14" cx="1546.65" cy="637.42" rx="43.02" ry="38.14"/><ellipse class="cls-14" cx="998.83" cy="650.13" rx="43.02" ry="38.14"/><ellipse class="cls-14" cx="1054.29" cy="637.42" rx="43.02" ry="38.14"/></g></g><path class="cls-22" d="M1942.37,726.1H-55.79v-76.27H1942.37v76.27Z"/><g><g><ellipse class="cls-22" cx="152.63" cy="648.13" rx="43.02" ry="38.14"/><ellipse class="cls-22" cx="221.47" cy="660" rx="43.02" ry="38.14"/><ellipse class="cls-22" cx="285.52" cy="647.29" rx="43.02" ry="38.14"/><ellipse class="cls-22" cx="339.06" cy="658.3" rx="43.02" ry="38.14"/><ellipse class="cls-22" cx="394.51" cy="652.37" rx="43.02" ry="38.14"/><ellipse class="cls-22" cx="458.57" cy="654.91" rx="43.02" ry="38.14"/><ellipse class="cls-22" cx="634.48" cy="639.66" rx="43.02" ry="38.14"/><ellipse class="cls-22" cx="703.32" cy="651.52" rx="43.02" ry="38.14"/><ellipse class="cls-22" cx="767.37" cy="638.81" rx="43.02" ry="38.14"/><ellipse class="cls-22" cx="820.91" cy="649.83" rx="43.02" ry="38.14"/><ellipse class="cls-22" cx="876.36" cy="643.9" rx="43.02" ry="38.14"/><ellipse class="cls-22" cx="940.42" cy="646.44" rx="43.02" ry="38.14"/><ellipse class="cls-22" cx="513.06" cy="651.52" rx="43.02" ry="38.14"/><ellipse class="cls-22" cx="568.51" cy="638.81" rx="43.02" ry="38.14"/><ellipse class="cls-22" cx="31.21" cy="660" rx="43.02" ry="38.14"/><ellipse class="cls-22" cx="86.66" cy="647.29" rx="43.02" ry="38.14"/><ellipse class="cls-22" cx="200.83" cy="621.1" rx="43.02" ry="38.14"/></g><g><ellipse class="cls-22" cx="1126.85" cy="642.2" rx="43.02" ry="38.14"/><ellipse class="cls-22" cx="1195.69" cy="654.07" rx="43.02" ry="38.14"/><ellipse class="cls-22" cx="1259.74" cy="641.35" rx="43.02" ry="38.14"/><ellipse class="cls-22" cx="1313.28" cy="652.37" rx="43.02" ry="38.14"/><ellipse class="cls-22" cx="1368.73" cy="646.44" rx="43.02" ry="38.14"/><ellipse class="cls-22" cx="1433.74" cy="642.2" rx="43.02" ry="38.14"/><ellipse class="cls-22" cx="1608.7" cy="633.73" rx="43.02" ry="38.14"/><ellipse class="cls-22" cx="1677.54" cy="645.59" rx="43.02" ry="38.14"/><ellipse class="cls-22" cx="1741.59" cy="632.88" rx="43.02" ry="38.14"/><ellipse class="cls-22" cx="1795.13" cy="643.9" rx="43.02" ry="38.14"/><ellipse class="cls-22" cx="1850.58" cy="637.96" rx="43.02" ry="38.14"/><ellipse class="cls-22" cx="1914.64" cy="640.51" rx="43.02" ry="38.14"/><ellipse class="cls-22" cx="1487.28" cy="654.07" rx="43.02" ry="38.14"/><ellipse class="cls-22" cx="1553.25" cy="641.35" rx="43.02" ry="38.14"/><ellipse class="cls-22" cx="1005.43" cy="654.07" rx="43.02" ry="38.14"/><ellipse class="cls-22" cx="1060.88" cy="641.35" rx="43.02" ry="38.14"/></g></g><g><g><g><path class="cls-4" d="M258.77,665.59c-.78,.59-2.13,.81-4.42,.81h0c-8.08,1.16-30.76-25.2-30.92-32.49h0c-.05-1.84,.12-2.86,.68-3.34"/><path class="cls-13" d="M224.11,630.58c1.01-.86,3.26,.03,7.75,1.04h0s25.52,6.35,25.52,11.77l2.2,15.73c.19,3.53,.49,5.5-.81,6.47"/></g><g><path class="cls-4" d="M254.2,665.3c.78,.59,2.13,.81,4.42,.81h0c8.08,1.16,30.76-25.2,30.92-32.49h0c.05-1.84-.12-2.86-.68-3.34"/><path class="cls-13" d="M288.86,630.28c-1.01-.86-3.26,.03-7.75,1.04h0s-25.52,6.35-25.52,11.77l-2.2,15.73c-.19,3.53-.49,5.5,.81,6.47"/></g><rect class="cls-4" x="253.1" y="615.88" width="7.04" height="85.51"/><g><path class="cls-10" d="M256.31,597.8h-7.44c-3.26,0-5.17-3.25-3.31-5.61l7.44-9.46c.8-1.02,2.05-1.53,3.31-1.53"/><path class="cls-9" d="M256.31,581.19c1.25,0,2.5,.51,3.31,1.53l7.44,9.46c1.86,2.37-.05,5.61-3.31,5.61h-7.44"/><path class="cls-9" d="M256.29,594.9c9.96,1.45,18.62-28.95,18.18-1.66-.26,16.05,.98,28.62-17.28,28.29"/><path class="cls-10" d="M257.19,621.52c-.38,0-.77-.02-1.17-.04-12.84-.59-18.46-10.41-18.94-21.46-1.45-33.12,2.83-10.9,18.24-5.37,.32,.12,.65,.2,.97,.24"/></g></g><g><g><path class="cls-4" d="M177.91,667.78c-.78,.59-2.13,.81-4.42,.81h0c-8.08,1.16-30.76-25.2-30.92-32.49h0c-.05-1.84,.12-2.86,.68-3.34"/><path class="cls-13" d="M143.25,632.77c1.01-.86,3.26,.03,7.75,1.04h0s25.52,6.35,25.52,11.77l2.2,15.73c.19,3.53,.49,5.5-.81,6.47"/></g><rect class="cls-4" x="172.24" y="618.07" width="7.04" height="85.51"/><g><path class="cls-10" d="M175.45,599.99h-7.44c-3.26,0-5.17-3.25-3.31-5.61l7.44-9.46c.8-1.02,2.05-1.53,3.31-1.53"/><path class="cls-9" d="M175.45,583.38c1.25,0,2.5,.51,3.31,1.53l7.44,9.46c1.86,2.37-.05,5.61-3.31,5.61h-7.44"/><path class="cls-9" d="M175.43,597.09c9.96,1.45,18.62-28.95,18.18-1.66-.26,16.05,.98,28.62-17.28,28.29"/><path class="cls-10" d="M176.33,623.71c-.38,0-.77-.02-1.17-.04-12.84-.59-18.46-10.41-18.94-21.46-1.45-33.12,2.83-10.9,18.24-5.37,.32,.12,.65,.2,.97,.24"/></g></g><g><g><path class="cls-4" d="M100.59,671.01c-.78,.59-2.13,.81-4.42,.81h0c-8.08,1.16-30.76-25.2-30.92-32.49h0c-.05-1.84,.12-2.86,.68-3.34"/><path class="cls-13" d="M65.93,636c1.01-.86,3.26,.03,7.75,1.04h0s25.52,6.35,25.52,11.77l2.2,15.73c.19,3.53,.49,5.5-.81,6.47"/></g><rect class="cls-4" x="94.92" y="621.3" width="7.04" height="85.51"/><g><path class="cls-10" d="M98.12,603.22h-7.44c-3.26,0-5.17-3.25-3.31-5.61l7.44-9.46c.8-1.02,2.05-1.53,3.31-1.53"/><path class="cls-9" d="M98.12,586.61c1.25,0,2.5,.51,3.31,1.53l7.44,9.46c1.86,2.37-.05,5.61-3.31,5.61h-7.44"/><path class="cls-9" d="M98.1,600.32c9.96,1.45,18.62-28.95,18.18-1.66-.26,16.05,.98,28.62-17.28,28.29"/><path class="cls-10" d="M99.01,626.95c-.38,0-.77-.02-1.17-.04-12.84-.59-18.46-10.41-18.94-21.46-1.45-33.12,2.83-10.9,18.24-5.37,.32,.12,.65,.2,.97,.24"/></g></g><polygon class="cls-5" points="275 762.54 75.45 763 67.96 697.04 287.43 698.98 275 762.54"/><rect class="cls-8" x="49.23" y="671.52" width="256.77" height="27.7" rx="13.14" ry="13.14"/></g><g><polygon class="cls-6" points="1757.85 717.11 1696.46 717.11 1695.34 625.84 1759.61 625.84 1757.85 717.11"/><path class="cls-6" d="M1740.7,716.12c.62,1.59,84.29,1.79,85.12,.85,10.08-11.35-7-26.24-28.32-31.14-4.88-1.12-41.7-5.33-47.52-3.69-2.81,.79-10.11,31.83-9.28,33.98h0Z"/><rect class="cls-15" x="1696.46" y="717.11" width="18.3" height="13.17"/><rect class="cls-15" x="1718.33" y="717.11" width="18.3" height="13.17"/><polygon class="cls-15" points="1826.46 729.29 1743.44 729.45 1736.9 716.94 1826.46 716.78 1826.46 729.29"/><rect class="cls-15" x="1695.34" y="614.26" width="64.27" height="11.58"/></g><g><polygon class="cls-11" points="1721.55 730.17 1660.17 730.17 1659.05 638.9 1723.32 638.9 1721.55 730.17"/><path class="cls-11" d="M1704.41,729.18c.62,1.59,84.29,1.79,85.12,.85,10.08-11.35-7-26.24-28.32-31.14-4.88-1.12-41.7-5.33-47.52-3.69-2.81,.79-10.11,31.83-9.28,33.98h0Z"/><rect class="cls-15" x="1660.17" y="730.17" width="18.3" height="13.17"/><rect class="cls-15" x="1682.04" y="730.17" width="18.3" height="13.17"/><polygon class="cls-15" points="1790.17 742.36 1707.15 742.51 1700.61 730 1790.17 729.84 1790.17 742.36"/><rect class="cls-15" x="1659.05" y="627.32" width="64.27" height="11.58"/></g><g><ellipse class="cls-3" cx="733.43" cy="166.36" rx="109.47" ry="39.41"/><ellipse class="cls-3" cx="813.74" cy="134.15" rx="109.47" ry="39.41"/><ellipse class="cls-3" cx="873.02" cy="166.36" rx="109.47" ry="39.41"/></g><g><ellipse class="cls-3" cx="1002.08" cy="280.76" rx="109.47" ry="39.41"/><ellipse class="cls-3" cx="1082.39" cy="248.56" rx="109.47" ry="39.41"/><ellipse class="cls-3" cx="1141.67" cy="280.76" rx="109.47" ry="39.41"/></g><g><ellipse class="cls-3" cx="1249.7" cy="163.81" rx="109.47" ry="39.41"/><ellipse class="cls-3" cx="1330.01" cy="131.61" rx="109.47" ry="39.41"/><ellipse class="cls-3" cx="1389.29" cy="163.81" rx="109.47" ry="39.41"/></g></g><g><g><g><path class="cls-18" d="M564.48,420.39v32.01h51.91v27.12h-51.91v45.49h-33.55v-132.96h92.96v28.34h-59.41Z"/><path class="cls-18" d="M655.86,399.05c0-11.02,8.88-18.02,22.7-18.02s22.7,7,22.7,18.02-9.08,18.19-22.7,18.19-22.7-7.17-22.7-18.19Zm6.32,27.99h32.76v97.97h-32.76v-97.97h0Z"/><path class="cls-18" d="M815.92,452.23v72.78h-32.57v-70.15c0-10.85-5.33-16.09-15.79-16.09s-16.58,5.77-16.58,16.09v59.66h-32.76v-113.71h32.76v16.44c7.11-3.85,15-5.95,23.09-5.95,26.64,0,41.84,14.87,41.84,40.94h0Z"/><path class="cls-18" d="M936.9,379.8v145.2h-32.56v-12.42c-6.32,2.97-14.21,4.72-22.89,4.72-30,0-48.55-17.67-48.55-46.19v-13.65c0-28.52,18.55-46.19,48.55-46.19,8.68,0,16.58,1.75,22.89,4.72v-36.21h32.56v.02Zm-32.56,90.8v-11.2c0-13.65-6.91-20.64-19.54-20.64s-19.34,7.17-19.34,20.64v11.2c0,13.47,6.71,20.47,19.34,20.47s19.54-7,19.54-20.47Z"/><path class="cls-18" d="M1052.36,443.13v38.66c0,11.9,5.33,16.97,17.37,16.97h9.28v26.24h-12.83c-33.35,0-46.58-13.47-46.58-42.69v-39.19h-15.2v-27.47h15.2v-23.62h32.76v23.62h26.64v27.47h-26.64Z"/><path class="cls-18" d="M1195.44,452.23v72.78h-32.57v-70.15c0-10.85-5.33-16.09-15.79-16.09s-16.58,5.77-16.58,16.09v59.66h-32.76v-134.71h32.76v37.44c7.11-3.85,15-5.95,23.09-5.95,26.64,0,41.84,14.87,41.84,40.94h.01Z"/><path class="cls-18" d="M1244.98,468.85v9.45c0,13.65,6.71,20.47,19.74,20.47s17.96-5.95,19.34-18.37h32.57c-2.17,30.27-19.93,44.61-52.1,44.61s-52.1-17.67-52.1-46.19v-31.84c0-28.52,19.93-46.19,52.1-46.19s52.1,16.62,52.1,44.61v23.44h-71.65Zm0-23.26v1.92h39.08v-3.67c0-12.25-6.91-18.72-19.34-18.72s-19.74,7-19.74,20.47Z"/><path class="cls-18" d="M619.84,681.76v-17.84c0-28.52,19.93-46.19,52.1-46.19,33.95,0,49.74,15.57,51.91,46.01h-32.56c-1.38-12.77-6.32-18.54-19.14-18.54s-19.74,7-19.74,20.64v15.4c0,13.65,6.71,20.47,19.74,20.47s17.76-5.95,19.14-18.37h32.56c-2.17,29.74-18.55,44.61-51.91,44.61s-52.1-17.67-52.1-46.18h0Z"/><path class="cls-18" d="M838.32,650.97v83.97h-32.57v-13.3c-6.51,3.5-14.61,5.07-25.46,5.07-25.26,0-42.43-13.65-42.43-33.59,0-20.99,16.18-33.06,44.41-33.06,9.08,0,16.78,1.4,23.49,4.2v-13.65c0-9.97-5.53-15.22-15.99-15.22s-15,4.2-15.99,16.09h-32.76c1.97-27.64,17.57-40.76,48.55-40.76s48.75,14.17,48.75,40.24h0Zm-32.57,41.47c0-8.05-5.92-12.25-17.96-12.25-11.25,0-17.37,4.37-17.37,12.25s6.12,12.25,17.37,12.25c12.04,0,17.96-4.2,17.96-12.25Z"/><path class="cls-18" d="M929.9,621.93v27.64h-7.3c-17.96,0-30.2,8.05-30.2,27.47v47.41h-32.76v-113.71h32.76v20.12c6.51-6.3,15.59-9.62,26.64-9.62,4.34,0,7.5,.17,10.85,.7h.01Z"/><path class="cls-18" d="M1018.51,627.17v27.64h-7.3c-17.96,0-30.2,8.05-30.2,27.47v47.41h-32.76v-118.96h32.76v25.37c6.51-6.3,15.59-9.62,26.64-9.62,4.34,0,7.5,.17,10.85,.7h.01Z"/><path class="cls-18" d="M1032.52,678.26v-10.85c0-29.04,20.53-46.19,52.1-46.19s52.1,17.14,52.1,46.19v10.85c0,29.04-20.53,46.19-52.1,46.19s-52.1-17.14-52.1-46.19Zm71.64-.52v-8.4c0-13.65-7.11-20.64-19.54-20.64s-19.54,7-19.54,20.64v8.4c0,13.65,6.91,20.47,19.54,20.47s19.54-6.82,19.54-20.47Z"/><path class="cls-18" d="M1196.92,653.07v38.66c0,11.9,5.33,16.97,17.37,16.97h9.28v26.24h-12.83c-33.35,0-46.58-13.47-46.58-42.69v-39.19h-15.2v-27.47h15.2v-23.62h32.76v23.62h26.64v27.47h-26.64Z"/></g><g><path class="cls-19" d="M557.26,416.56v32.01h51.91v27.12h-51.91v45.49h-33.55v-132.96h92.96v28.34h-59.41Z"/><path class="cls-19" d="M648.63,395.22c0-11.02,8.88-18.02,22.7-18.02s22.7,7,22.7,18.02-9.08,18.19-22.7,18.19-22.7-7.17-22.7-18.19Zm6.32,27.99h32.76v97.97h-32.76v-97.97Z"/><path class="cls-19" d="M808.7,448.4v72.78h-32.57v-70.15c0-10.85-5.33-16.09-15.79-16.09s-16.58,5.77-16.58,16.09v59.66h-32.76v-113.71h32.76v16.44c7.11-3.85,15-5.95,23.09-5.95,26.64,0,41.84,14.87,41.84,40.94h0Z"/><path class="cls-19" d="M929.68,375.97v145.2h-32.56v-12.42c-6.32,2.97-14.21,4.72-22.89,4.72-30,0-48.55-17.67-48.55-46.19v-13.65c0-28.52,18.55-46.19,48.55-46.19,8.68,0,16.58,1.75,22.89,4.72v-36.21h32.56v.02Zm-32.56,90.8v-11.2c0-13.65-6.91-20.64-19.54-20.64s-19.34,7.17-19.34,20.64v11.2c0,13.47,6.71,20.47,19.34,20.47s19.54-7,19.54-20.47Z"/><path class="cls-19" d="M1045.13,439.3v38.66c0,11.9,5.33,16.97,17.37,16.97h9.28v26.24h-12.83c-33.35,0-46.58-13.47-46.58-42.69v-39.19h-15.2v-27.47h15.2v-23.62h32.76v23.62h26.64v27.47h-26.64Z"/><path class="cls-19" d="M1188.22,448.4v72.78h-32.57v-70.15c0-10.85-5.33-16.09-15.79-16.09s-16.58,5.77-16.58,16.09v59.66h-32.76v-134.71h32.76v37.44c7.11-3.85,15-5.95,23.09-5.95,26.64,0,41.84,14.87,41.84,40.94h.01Z"/><path class="cls-19" d="M1237.76,465.02v9.45c0,13.65,6.71,20.47,19.74,20.47s17.96-5.95,19.34-18.37h32.57c-2.17,30.27-19.93,44.61-52.1,44.61s-52.1-17.67-52.1-46.19v-31.84c0-28.52,19.93-46.19,52.1-46.19s52.1,16.62,52.1,44.61v23.44h-71.65Zm0-23.26v1.92h39.08v-3.67c0-12.25-6.91-18.72-19.34-18.72s-19.74,7-19.74,20.47Z"/><path class="cls-19" d="M612.62,677.93v-17.84c0-28.52,19.93-46.19,52.1-46.19,33.95,0,49.74,15.57,51.91,46.01h-32.56c-1.38-12.77-6.32-18.54-19.14-18.54s-19.74,7-19.74,20.64v15.4c0,13.65,6.71,20.47,19.74,20.47s17.76-5.95,19.14-18.37h32.56c-2.17,29.74-18.55,44.61-51.91,44.61s-52.1-17.67-52.1-46.18h0Z"/><path class="cls-19" d="M831.1,647.14v83.97h-32.57v-13.3c-6.51,3.5-14.61,5.07-25.46,5.07-25.26,0-42.43-13.65-42.43-33.59,0-20.99,16.18-33.06,44.41-33.06,9.08,0,16.78,1.4,23.49,4.2v-13.65c0-9.97-5.53-15.22-15.99-15.22s-15,4.2-15.99,16.09h-32.76c1.97-27.64,17.57-40.76,48.55-40.76s48.75,14.17,48.75,40.24h0Zm-32.57,41.47c0-8.05-5.92-12.25-17.96-12.25-11.25,0-17.37,4.37-17.37,12.25s6.12,12.25,17.37,12.25c12.04,0,17.96-4.2,17.96-12.25Z"/><path class="cls-19" d="M922.67,618.1v27.64h-7.3c-17.96,0-30.2,8.05-30.2,27.47v47.41h-32.76v-113.71h32.76v20.12c6.51-6.3,15.59-9.62,26.64-9.62,4.34,0,7.5,.17,10.85,.7h.01Z"/><path class="cls-19" d="M1011.29,623.34v27.64h-7.3c-17.96,0-30.2,8.05-30.2,27.47v47.41h-32.76v-118.96h32.76v25.37c6.51-6.3,15.59-9.62,26.64-9.62,4.34,0,7.5,.17,10.85,.7h.01Z"/><path class="cls-19" d="M1025.3,674.43v-10.85c0-29.04,20.53-46.19,52.1-46.19s52.1,17.14,52.1,46.19v10.85c0,29.04-20.53,46.19-52.1,46.19s-52.1-17.14-52.1-46.19Zm71.64-.52v-8.4c0-13.65-7.11-20.64-19.54-20.64s-19.54,7-19.54,20.64v8.4c0,13.65,6.91,20.47,19.54,20.47s19.54-6.82,19.54-20.47Z"/><path class="cls-19" d="M1189.7,649.24v38.66c0,11.9,5.33,16.97,17.37,16.97h9.28v26.24h-12.83c-33.35,0-46.58-13.47-46.58-42.69v-39.19h-15.2v-27.47h15.2v-23.62h32.76v23.62h26.64v27.47h-26.64Z"/></g><g><path class="cls-12" d="M551.77,410.94v32.01h51.91v27.12h-51.91v45.49h-33.55v-132.96h92.96v28.34h-59.41Z"/><path class="cls-12" d="M643.14,389.6c0-11.02,8.88-18.02,22.7-18.02s22.7,7,22.7,18.02-9.08,18.19-22.7,18.19-22.7-7.17-22.7-18.19Zm6.32,27.99h32.76v97.97h-32.76v-97.97Z"/><path class="cls-12" d="M803.2,442.78v72.78h-32.57v-70.15c0-10.85-5.33-16.09-15.79-16.09s-16.58,5.77-16.58,16.09v59.66h-32.76v-113.71h32.76v16.44c7.11-3.85,15-5.95,23.09-5.95,26.64,0,41.84,14.87,41.84,40.94h0Z"/><path class="cls-12" d="M924.19,370.35v145.2h-32.56v-12.42c-6.32,2.97-14.21,4.72-22.89,4.72-30,0-48.55-17.67-48.55-46.19v-13.65c0-28.52,18.55-46.19,48.55-46.19,8.68,0,16.58,1.75,22.89,4.72v-36.21h32.56v.02Zm-32.56,90.8v-11.2c0-13.65-6.91-20.64-19.54-20.64s-19.34,7.17-19.34,20.64v11.2c0,13.47,6.71,20.47,19.34,20.47s19.54-7,19.54-20.47Z"/><path class="cls-12" d="M1039.64,433.68v38.66c0,11.9,5.33,16.97,17.37,16.97h9.28v26.24h-12.83c-33.35,0-46.58-13.47-46.58-42.69v-39.19h-15.2v-27.47h15.2v-23.62h32.76v23.62h26.64v27.47h-26.64Z"/><path class="cls-12" d="M1182.73,442.78v72.78h-32.57v-70.15c0-10.85-5.33-16.09-15.79-16.09s-16.58,5.77-16.58,16.09v59.66h-32.76v-134.71h32.76v37.44c7.11-3.85,15-5.95,23.09-5.95,26.64,0,41.84,14.87,41.84,40.94h.01Z"/><path class="cls-12" d="M1232.27,459.4v9.45c0,13.65,6.71,20.47,19.74,20.47s17.96-5.95,19.34-18.37h32.57c-2.17,30.27-19.93,44.61-52.1,44.61s-52.1-17.67-52.1-46.19v-31.84c0-28.52,19.93-46.19,52.1-46.19s52.1,16.62,52.1,44.61v23.44h-71.65Zm0-23.26v1.92h39.08v-3.67c0-12.25-6.91-18.72-19.34-18.72s-19.74,7-19.74,20.47Z"/><path class="cls-12" d="M607.13,672.31v-17.84c0-28.52,19.93-46.19,52.1-46.19,33.95,0,49.74,15.57,51.91,46.01h-32.56c-1.38-12.77-6.32-18.54-19.14-18.54s-19.74,7-19.74,20.64v15.4c0,13.65,6.71,20.47,19.74,20.47s17.76-5.95,19.14-18.37h32.56c-2.17,29.74-18.55,44.61-51.91,44.61s-52.1-17.67-52.1-46.18h0Z"/><path class="cls-12" d="M825.61,641.52v83.97h-32.57v-13.3c-6.51,3.5-14.61,5.07-25.46,5.07-25.26,0-42.43-13.65-42.43-33.59,0-20.99,16.18-33.06,44.41-33.06,9.08,0,16.78,1.4,23.49,4.2v-13.65c0-9.97-5.53-15.22-15.99-15.22s-15,4.2-15.99,16.09h-32.76c1.97-27.64,17.57-40.76,48.55-40.76s48.75,14.17,48.75,40.24h0Zm-32.57,41.47c0-8.05-5.92-12.25-17.96-12.25-11.25,0-17.37,4.37-17.37,12.25s6.12,12.25,17.37,12.25c12.04,0,17.96-4.2,17.96-12.25Z"/><path class="cls-12" d="M917.18,612.48v27.64h-7.3c-17.96,0-30.2,8.05-30.2,27.47v47.41h-32.76v-113.71h32.76v20.12c6.51-6.3,15.59-9.62,26.64-9.62,4.34,0,7.5,.17,10.85,.7h.01Z"/><path class="cls-12" d="M1005.8,617.72v27.64h-7.3c-17.96,0-30.2,8.05-30.2,27.47v47.41h-32.76v-118.96h32.76v25.37c6.51-6.3,15.59-9.62,26.64-9.62,4.34,0,7.5,.17,10.85,.7h.01Z"/><path class="cls-12" d="M1019.81,668.81v-10.85c0-29.04,20.53-46.19,52.1-46.19s52.1,17.14,52.1,46.19v10.85c0,29.04-20.53,46.19-52.1,46.19s-52.1-17.14-52.1-46.19h0Zm71.64-.52v-8.4c0-13.65-7.11-20.64-19.54-20.64s-19.54,7-19.54,20.64v8.4c0,13.65,6.91,20.47,19.54,20.47s19.54-6.82,19.54-20.47Z"/><path class="cls-12" d="M1184.21,643.62v38.66c0,11.9,5.33,16.97,17.37,16.97h9.28v26.24h-12.83c-33.35,0-46.58-13.47-46.58-42.69v-39.19h-15.2v-27.47h15.2v-23.62h32.76v23.62h26.64v27.47h-26.64Z"/></g></g><g><g><path class="cls-4" d="M1580.69,392.68c2.92,.04,5.48,2.62,7.5,6.98,.2-.97,.39-1.94,.61-2.92,6.45-28.28,19.28-50.08,28.65-48.7,4.69,.69,7.63,7.05,8.59,16.77,.23-.3,.46-.6,.69-.9,29.02-37.12,62.31-61.21,74.35-53.82,12.04,7.4-1.72,43.49-30.74,80.6-.24,.3-.47,.59-.71,.89,10.6-2.62,18.35-2.41,20.73,1.24,4.75,7.3-13.77,25.6-41.38,40.88-.96,.53-1.91,1.03-2.87,1.54,5.32,.15,8.94,1.37,10.01,3.78,3.03,6.84-15.33,20.53-41,30.58-12.57,4.92-24.54,8.04-33.86,9.16-2.03,2.49-4.2,3.89-6.38,3.86-2.12-.03-4.05-1.39-5.72-3.78-3.12-.55-5.23-1.67-6.01-3.42-.8-1.8-.08-4.09,1.84-6.65-2.09-8.12-3-19.16-2.22-31.32,1.6-24.83,9.62-44.88,17.91-44.77"/><path class="cls-4" d="M1692.2,511.26c-.05-2.59-2.96-4.86-7.87-6.66,1.1-.18,2.19-.35,3.29-.55,31.9-5.71,56.5-17.07,54.95-25.39-.78-4.16-7.95-6.76-18.92-7.61,.34-.21,.67-.4,1.01-.61,41.89-25.72,69.07-55.21,60.73-65.89-8.34-10.68-49.06,1.51-90.94,27.23-.34,.21-.67,.42-1,.63,2.95-9.4,2.72-16.27-1.39-18.38-8.23-4.21-28.88,12.2-46.13,36.67-.6,.85-1.16,1.69-1.73,2.54-.17-4.72-1.54-7.93-4.26-8.87-7.72-2.68-23.17,13.58-34.51,36.34-5.56,11.14-9.08,21.75-10.34,30.01-2.81,1.8-4.39,3.72-4.36,5.65,.03,1.88,1.57,3.59,4.27,5.07,.62,2.76,1.88,4.64,3.86,5.32,2.03,.71,4.61,.07,7.5-1.63,9.17,1.86,21.61,2.67,35.33,1.98,28.02-1.42,50.64-8.52,50.51-15.86"/><path class="cls-13" d="M1624.42,384.74c3.69,.64,6.27,4.43,7.72,10.38,.51-1.2,1-2.38,1.53-3.58,15.46-34.57,37.34-59.64,48.88-55.99,5.77,1.83,7.86,10.49,6.58,23.01,.37-.33,.73-.67,1.11-1,46.37-41.23,94.79-65.07,108.17-53.25s-13.37,54.82-59.73,96.05c-.37,.33-.75,.65-1.13,.98,14.13-1.17,23.91,.65,25.98,5.76,4.15,10.22-24.06,29.7-63.01,43.51-1.36,.48-2.69,.91-4.04,1.37,6.71,1.26,10.99,3.54,11.72,6.81,2.09,9.29-24.73,22.95-59.88,30.51-17.21,3.7-33.2,5.24-45.32,4.77-3.22,2.74-6.32,4.08-9.08,3.61-2.68-.47-4.78-2.58-6.29-5.96-3.82-1.32-6.21-3.18-6.74-5.55-.55-2.44,.95-5.2,4.04-8.06-.57-10.74,1.12-24.92,5.24-40.19,8.42-31.19,23.75-54.99,34.24-53.18"/></g><g><path class="cls-19" d="M1592.89,478.18c37.14,32.82,33.9,89.07-7.23,125.65-74.38,56-149.83,101.44-237.45,119.45-10.59,1.56-19.59-.83-24.86-5.43-5.2-4.66-7.93-12.63-6.2-22.02,20.04-77.72,71.07-144.74,134.02-210.85,41.13-36.58,104.58-39.62,141.72-6.81"/><path class="cls-18" d="M1579.06,468.29c-36.17-9.95-81.12,.58-114.11,29.93-65.65,68.1-119.92,136.68-145.77,214.12-2.29-4.47-3.2-10.14-2.03-16.49,20.05-77.72,71.07-144.74,134.02-210.85,36.39-32.37,90.24-38.45,127.9-16.7"/><path class="cls-12" d="M1604.1,490.41c11.33,32.03-.4,71.9-33.4,101.25-76.62,58.4-153.82,106.73-241.1,129.88,5.05,2.02,11.45,2.81,18.61,1.75,87.62-18.02,163.06-63.46,237.45-119.46,36.4-32.36,43.1-80.12,18.44-113.42"/><path class="cls-18" d="M1565.19,549.4c-2.44,2.17-.07,7.77,5.29,12.51,5.36,4.74,11.69,6.82,14.13,4.65s.07-7.77-5.29-12.51c-5.36-4.74-11.69-6.82-14.13-4.65"/><path class="cls-18" d="M1485.45,516.81c-2.44,2.17-.07,7.77,5.29,12.51,5.36,4.74,11.69,6.82,14.13,4.65s.07-7.77-5.29-12.51c-5.36-4.74-11.69-6.82-14.13-4.65"/><path class="cls-18" d="M1545.36,494c-2.44,2.17-.07,7.77,5.29,12.51,5.36,4.74,11.69,6.82,14.13,4.65s.07-7.77-5.29-12.51c-5.36-4.74-11.69-6.82-14.13-4.65"/><path class="cls-18" d="M1496.18,583.76c-2.44,2.17-.07,7.77,5.29,12.51,5.36,4.74,11.69,6.82,14.13,4.65s.07-7.77-5.29-12.51c-5.36-4.74-11.69-6.82-14.13-4.65"/><path class="cls-18" d="M1416.21,578.39c-2.44,2.17-.07,7.77,5.29,12.51,5.36,4.74,11.69,6.82,14.13,4.65s.07-7.77-5.29-12.51c-5.36-4.74-11.69-6.82-14.13-4.65"/><path class="cls-18" d="M1435.28,630.5c-2.44,2.17-.07,7.77,5.29,12.51,5.36,4.74,11.69,6.82,14.13,4.65s.07-7.77-5.29-12.51c-5.36-4.74-11.69-6.82-14.13-4.65"/><path class="cls-18" d="M1382.43,621.67c-2.44,2.17-.07,7.77,5.29,12.51,5.36,4.74,11.69,6.82,14.13,4.65s.07-7.77-5.29-12.51c-5.36-4.74-11.69-6.82-14.13-4.65"/><path class="cls-18" d="M1392.18,659.02c-2.44,2.17-.07,7.77,5.29,12.51,5.36,4.74,11.69,6.82,14.13,4.65s.07-7.77-5.29-12.51c-5.36-4.74-11.69-6.82-14.13-4.65"/><path class="cls-18" d="M1348.73,678.08c-2.44,2.17-.07,7.77,5.29,12.51s11.69,6.82,14.13,4.65,.07-7.77-5.29-12.51-11.69-6.82-14.13-4.65"/></g></g><g><g><path class="cls-4" d="M144.74,489.79c.05-2.59,2.96-4.85,7.88-6.65-1.09-.18-2.19-.35-3.29-.55-31.9-5.72-56.49-17.1-54.93-25.41,.78-4.16,7.96-6.76,18.92-7.61-.34-.21-.67-.4-1.01-.61-41.87-25.73-69.05-55.24-60.71-65.91,8.35-10.67,49.06,1.53,90.93,27.26,.34,.21,.67,.42,1,.63-2.95-9.4-2.72-16.27,1.4-18.37,8.23-4.21,28.88,12.21,46.12,36.69,.6,.85,1.16,1.7,1.73,2.54,.17-4.71,1.54-7.92,4.26-8.87,7.72-2.68,23.16,13.59,34.49,36.35,5.55,11.14,9.07,21.75,10.33,30.02,2.81,1.8,4.39,3.72,4.35,5.65-.03,1.88-1.56,3.59-4.27,5.07-.62,2.77-1.89,4.64-3.86,5.32-2.03,.71-4.61,.07-7.5-1.63-9.17,1.86-21.62,2.66-35.34,1.96-28.01-1.42-50.63-8.53-50.5-15.88"/><path class="cls-4" d="M278.53,390.97c-2.93,.04-5.48,2.62-7.51,6.98-.2-.97-.39-1.94-.62-2.92-6.44-28.28-19.25-50.09-28.63-48.71-4.69,.69-7.63,7.05-8.59,16.77-.23-.3-.46-.6-.69-.9-29.01-37.13-62.28-61.23-74.32-53.84-12.05,7.39,1.7,43.48,30.71,80.61,.24,.3,.47,.59,.71,.89-10.61-2.62-18.35-2.41-20.73,1.23-4.75,7.29,13.76,25.6,41.36,40.9,.96,.53,1.91,1.03,2.87,1.54-5.32,.15-8.94,1.36-10.01,3.77-3.03,6.84,15.32,20.54,40.99,30.6,12.56,4.93,24.54,8.05,33.86,9.17,2.03,2.49,4.2,3.89,6.38,3.86,2.12-.03,4.05-1.39,5.72-3.78,3.12-.55,5.23-1.67,6.01-3.42,.8-1.8,.08-4.09-1.83-6.65,2.1-8.13,3.01-19.16,2.23-31.31-1.59-24.84-9.6-44.89-17.89-44.78"/><path class="cls-13" d="M135.79,451.03c.72-3.28,5-5.56,11.71-6.84-1.35-.45-2.68-.88-4.04-1.36-39-13.71-67.28-33.11-63.16-43.34,2.06-5.11,11.83-6.97,25.96-5.83-.38-.33-.75-.65-1.13-.98-46.5-41.11-73.39-84.03-60.06-95.89,13.34-11.86,61.84,11.85,108.35,52.96,.38,.33,.74,.66,1.11,1-1.32-12.52,.74-21.19,6.5-23.03,11.53-3.68,33.5,21.33,49.08,55.86,.54,1.2,1.03,2.39,1.54,3.58,1.43-5.95,3.99-9.74,7.69-10.39,10.48-1.85,25.89,21.92,34.42,53.08,4.17,15.26,5.91,29.43,5.38,40.17,3.1,2.85,4.61,5.6,4.07,8.05-.53,2.38-2.91,4.24-6.73,5.57-1.49,3.38-3.58,5.5-6.26,5.97-2.76,.49-5.87-.85-9.09-3.58-12.12,.5-28.11-1-45.33-4.65-35.19-7.47-62.04-21.06-59.99-30.35"/></g><g><path class="cls-19" d="M241.2,478.99c37.03-32.91,100.49-30.04,141.75,6.42,63.17,65.94,114.42,132.82,134.73,210.49,1.76,9.39-.94,17.37-6.12,22.04-5.26,4.61-14.25,7.03-24.84,5.49-87.68-17.78-163.28-63.02-237.85-118.82-41.26-36.46-44.69-92.71-7.66-125.63"/><path class="cls-18" d="M230.03,491.24c-11.23,32.06,.65,71.9,33.75,101.16,76.81,58.2,154.18,106.32,241.54,129.24-5.04,2.03-11.44,2.84-18.61,1.8-87.68-17.78-163.28-63.02-237.85-118.82-36.51-32.26-43.37-80-18.83-113.37"/><path class="cls-12" d="M254.99,469.06c36.13-10.04,81.12,.37,114.22,29.62,65.88,67.92,120.39,136.36,146.49,213.73,2.28-4.47,3.17-10.15,1.98-16.5-20.31-77.67-71.57-144.55-134.74-210.49-36.51-32.27-90.38-38.21-127.95-16.36"/><path class="cls-18" d="M321.54,503.55c2.45,2.16,8.77,.07,14.11-4.69,5.35-4.75,7.7-10.36,5.25-12.52-2.45-2.17-8.77-.07-14.12,4.69-5.34,4.75-7.69,10.36-5.25,12.52"/><path class="cls-18" d="M284.77,574.23c2.45,2.16,8.77,.07,14.12-4.69,5.34-4.75,7.69-10.36,5.25-12.52-2.45-2.17-8.77-.07-14.11,4.69-5.35,4.75-7.7,10.36-5.25,12.52"/><path class="cls-18" d="M259.04,521.13c2.45,2.16,8.77,.07,14.12-4.69,5.34-4.75,7.69-10.36,5.25-12.52-2.45-2.17-8.77-.07-14.12,4.69-5.34,4.75-7.69,10.36-5.25,12.52"/><path class="cls-18" d="M360.29,564.73c2.45,2.16,8.77,.07,14.12-4.69,5.34-4.75,7.69-10.36,5.25-12.52-2.45-2.16-8.77-.06-14.12,4.69-5.34,4.75-7.69,10.36-5.25,12.52"/><path class="cls-18" d="M354.22,635.61c2.45,2.16,8.76,.07,14.11-4.69,5.35-4.75,7.69-10.36,5.25-12.52-2.45-2.17-8.77-.07-14.11,4.69-5.35,4.75-7.69,10.36-5.25,12.52"/><path class="cls-18" d="M413.01,618.72c2.45,2.17,8.77,.07,14.11-4.69,5.35-4.75,7.7-10.36,5.25-12.52-2.45-2.17-8.77-.07-14.12,4.69-5.35,4.75-7.69,10.36-5.25,12.52"/><path class="cls-18" d="M403.05,665.57c2.45,2.16,8.77,.07,14.11-4.69,5.35-4.75,7.7-10.36,5.25-12.52-2.45-2.17-8.76-.07-14.11,4.69-5.35,4.75-7.69,10.36-5.25,12.52"/><path class="cls-18" d="M445.19,656.92c2.45,2.16,8.76,.07,14.11-4.69,5.35-4.75,7.7-10.36,5.25-12.52-2.45-2.16-8.77-.06-14.11,4.69-5.35,4.75-7.69,10.36-5.25,12.52"/><path class="cls-18" d="M466.69,695.45c2.45,2.16,8.77,.07,14.11-4.69,5.35-4.75,7.7-10.36,5.25-12.52-2.45-2.17-8.77-.07-14.11,4.69-5.35,4.75-7.69,10.36-5.25,12.52"/></g></g></g></g></g></g></g></svg>